HIERARCHY
ROOT hip
{
  OFFSET 0 0 0
  CHANNELS 6 Xposition Yposition Zposition Zrotation Yrotation Xrotation
  JOINT abdomen
  {
    OFFSET 0 20.6881 -0.73152
    CHANNELS 3 Zrotation Xrotation Yrotation
    JOINT chest
    {
      OFFSET 0 11.7043 -0.48768
      CHANNELS 3 Zrotation Xrotation Yrotation
      JOINT neck
      {
        OFFSET 0 22.1894 -2.19456
        CHANNELS 3 Zrotation Xrotation Yrotation
        JOINT head
        {
          OFFSET -0.24384 7.07133 1.2192
          CHANNELS 3 Zrotation Xrotation Yrotation
          JOINT leftEye
          {
            OFFSET 4.14528 8.04674 8.04672
            CHANNELS 3 Zrotation Xrotation Yrotation
            End Site
            {
              OFFSET 1 0 0
            }
          }
          JOINT rightEye
          {
            OFFSET -3.6576 8.04674 8.04672
            CHANNELS 3 Zrotation Xrotation Yrotation
            End Site
            {
              OFFSET 1 0 0
            }
          }
        }
      }
      JOINT rCollar
      {
        OFFSET -2.68224 19.2634 -4.8768
        CHANNELS 3 Zrotation Xrotation Yrotation
        JOINT rShldr
        {
          OFFSET -8.77824 -1.95073 1.46304
          CHANNELS 3 Zrotation Xrotation Yrotation
          JOINT rForeArm
          {
            OFFSET -28.1742 -1.7115 0.48768
            CHANNELS 3 Zrotation Xrotation Yrotation
            JOINT rHand
            {
              OFFSET -22.5879 0.773209 7.07136
              CHANNELS 3 Zrotation Xrotation Yrotation
              JOINT rThumb1
              {
                OFFSET -1.2192 -0.487915 3.41376
                CHANNELS 3 Zrotation Xrotation Yrotation
                JOINT rThumb2
                {
                  OFFSET -3.37035 -0.52449 3.41376
                  CHANNELS 3 Zrotation Xrotation Yrotation
                  End Site
                  {
                    OFFSET -1.78271 -1.18214 1.43049
                  }
                }
              }
              JOINT rIndex1
              {
                OFFSET -7.75947 0.938293 5.60832
                CHANNELS 3 Zrotation Xrotation Yrotation
                JOINT rIndex2
                {
                  OFFSET -2.54057 -0.884171 1.56538
                  CHANNELS 3 Zrotation Xrotation Yrotation
                  End Site
                  {
                    OFFSET -1.62519 -0.234802 1.16502
                  }
                }
              }
              JOINT rMid1
              {
                OFFSET -8.24714 1.18213 3.41376
                CHANNELS 3 Zrotation Xrotation Yrotation
                JOINT rMid2
                {
                  OFFSET -3.10165 -0.590103 1.0647
                  CHANNELS 3 Zrotation Xrotation Yrotation
                  End Site
                  {
                    OFFSET -2.48547 -0.328903 0.83742
                  }
                }
              }
              JOINT rRing1
              {
                OFFSET -8.82822 0.546677 1.51678
                CHANNELS 3 Zrotation Xrotation Yrotation
                JOINT rRing2
                {
                  OFFSET -2.60934 -0.819778 -0.0198488
                  CHANNELS 3 Zrotation Xrotation Yrotation
                  End Site
                  {
                    OFFSET -2.33842 -0.294052 0.168128
                  }
                }
              }
              JOINT rPinky1
              {
                OFFSET -8.27202 -0.0477905 -0.4584
                CHANNELS 3 Zrotation Xrotation Yrotation
                JOINT rPinky2
                {
                  OFFSET -1.82734 -0.647385 -0.700984
                  CHANNELS 3 Zrotation Xrotation Yrotation
                  End Site
                  {
                    OFFSET -1.69225 -0.51767 -0.607171
                  }
                }
              }
            }
          }
        }
      }
      JOINT lCollar
      {
        OFFSET 2.68224 19.2634 -4.8768
        CHANNELS 3 Zrotation Xrotation Yrotation
        JOINT lShldr
        {
          OFFSET 8.77824 -1.95073 1.46304
          CHANNELS 3 Zrotation Xrotation Yrotation
          JOINT lForeArm
          {
            OFFSET 28.1742 -1.7115 0.48768
            CHANNELS 3 Zrotation Xrotation Yrotation
            JOINT lHand
            {
              OFFSET 22.5879 0.773209 7.07136
              CHANNELS 3 Zrotation Xrotation Yrotation
              JOINT lThumb1
              {
                OFFSET 1.2192 -0.487915 3.41376
                CHANNELS 3 Zrotation Xrotation Yrotation
                JOINT lThumb2
                {
                  OFFSET 3.37035 -0.52449 3.41376
                  CHANNELS 3 Zrotation Xrotation Yrotation
                  End Site
                  {
                    OFFSET 1.78271 -1.18214 1.43049
                  }
                }
              }
              JOINT lIndex1
              {
                OFFSET 7.75947 0.938293 5.60832
                CHANNELS 3 Zrotation Xrotation Yrotation
                JOINT lIndex2
                {
                  OFFSET 2.54057 -0.884171 1.56538
                  CHANNELS 3 Zrotation Xrotation Yrotation
                  End Site
                  {
                    OFFSET 1.62519 -0.234802 1.16502
                  }
                }
              }
              JOINT lMid1
              {
                OFFSET 8.24714 1.18213 3.41376
                CHANNELS 3 Zrotation Xrotation Yrotation
                JOINT lMid2
                {
                  OFFSET 3.10165 -0.590103 1.0647
                  CHANNELS 3 Zrotation Xrotation Yrotation
                  End Site
                  {
                    OFFSET 2.48547 -0.328903 0.83742
                  }
                }
              }
              JOINT lRing1
              {
                OFFSET 8.82822 0.546677 1.51678
                CHANNELS 3 Zrotation Xrotation Yrotation
                JOINT lRing2
                {
                  OFFSET 2.60934 -0.819778 -0.0198488
                  CHANNELS 3 Zrotation Xrotation Yrotation
                  End Site
                  {
                    OFFSET 2.33842 -0.294052 0.168128
                  }
                }
              }
              JOINT lPinky1
              {
                OFFSET 8.27202 -0.0477905 -0.4584
                CHANNELS 3 Zrotation Xrotation Yrotation
                JOINT lPinky2
                {
                  OFFSET 1.82734 -0.647385 -0.700984
                  CHANNELS 3 Zrotation Xrotation Yrotation
                  End Site
                  {
                    OFFSET 1.69225 -0.51767 -0.607171
                  }
                }
              }
            }
          }
        }
      }
    }
  }
  JOINT rButtock
  {
    OFFSET -8.77824 4.35084 1.2192
    CHANNELS 3 Zrotation Xrotation Yrotation
    JOINT rThigh
    {
      OFFSET 0 -1.70687 -2.19456
      CHANNELS 3 Zrotation Xrotation Yrotation
      JOINT rShin
      {
        OFFSET 0 -36.8199 0.73152
        CHANNELS 3 Zrotation Xrotation Yrotation
        JOINT rFoot
        {
          OFFSET 0.73152 -45.1104 -5.12064
          CHANNELS 3 Zrotation Xrotation Yrotation
          End Site
          {
            OFFSET -1.1221 -3.69964 12.103
          }
        }
      }
    }
  }
  JOINT lButtock
  {
    OFFSET 8.77824 4.35084 1.2192
    CHANNELS 3 Zrotation Xrotation Yrotation
    JOINT lThigh
    {
      OFFSET 0 -1.70687 -2.19456
      CHANNELS 3 Zrotation Xrotation Yrotation
      JOINT lShin
      {
        OFFSET 0 -36.8199 0.73152
        CHANNELS 3 Zrotation Xrotation Yrotation
        JOINT lFoot
        {
          OFFSET -0.73152 -45.1104 -5.12064
          CHANNELS 3 Zrotation Xrotation Yrotation
          End Site
          {
            OFFSET 1.1221 -3.69964 12.103
          }
        }
      }
    }
  }
}
MOTION
Frames:	6
Frame Time:	0.00833333
148.92621 80.7082 -49.938694 3.4729953 -14.008008 3.4109688 -6.628184 0.3783609 -6.1085334 -0.2564567 -0.27972218 -1.7410426 -2.3905985 7.5452085 -4.50909 1.2328728 22.633188 -9.532096 -0.0 0.0 -0.0 -0.0 0.0 -0.0 -0.0 -0.0 -0.0 3.624658 -23.473112 -0.43604487 -27.121794 -26.685009 61.793198 0.017796166 1.2725999 0.1789502 -0.0 0.0 0.0 -0.0 0.0 0.0 -0.0 0.0 0.0 7.7309017 5.4749126 0.4173222 -0.0 0.0 0.0 2.9055667 0.96507555 0.1030082 -0.0 0.0 0.0 10.278597 0.7318811 0.026273513 -0.0 0.0 0.0 2.2216635 -0.733451 -0.208321 -0.0 -0.0 -0.0 -84.29119 58.308792 7.109973 27.683603 -28.975893 -65.6172 0.4358535 -18.435995 2.6852164 -0.0 0.0 0.0 -0.0 0.0 0.0 -0.0 0.0 0.0 -7.7309017 5.4749126 -0.4173222 -0.0 0.0 0.0 -2.9055667 0.96507555 -0.1030082 -0.0 0.0 0.0 -10.278597 0.7318811 -0.026273513 -0.0 0.0 0.0 -2.2216635 -0.733451 0.208321 -0.0 0.0 -0.0 -5.4480205 -52.524593 -1.8335621 -1.409389 64.3049 1.7975527 -1.5266263 2.8143618 -14.362211 0.0 0.0 0.0 -2.0716002 -14.1305 1.4686025 0.086554445 29.56311 -0.8844542 8.12793 -19.796795 18.635908
148.7654 80.5092 -49.732994 3.421999 -14.605994 3.220047 -7.057036 0.5576371 -6.441136 -0.25643796 -0.43339533 -1.8395475 -2.4982705 7.377459 -4.2682123 0.8773853 22.382011 -8.982117 -0.0 0.0 -0.0 -0.0 0.0 -0.0 0.0 0.0 0.0 3.5557475 -23.860298 -0.8222742 -27.617607 -28.572607 64.677704 0.017582731 -2.3269796 -0.32746556 -0.0 0.0 -0.0 -0.0 0.0 -0.0 -0.0 0.0 -0.0 7.7309017 5.4749126 0.4173222 -0.0 0.0 -0.0 2.9055667 0.96507555 0.1030082 -0.0 0.0 -0.0 10.278597 0.7318811 0.026273513 -0.0 0.0 -0.0 2.2216635 -0.733451 -0.208321 0.0 0.0 0.0 -83.741 58.907303 6.3827577 27.709194 -29.093391 -65.80199 0.45718613 -18.86148 2.7519574 -0.0 0.0 -0.0 -0.0 0.0 -0.0 -0.0 0.0 -0.0 -7.7309017 5.4749126 -0.4173222 -0.0 0.0 -0.0 -2.9055667 0.96507555 -0.1030082 -0.0 0.0 -0.0 -10.278597 0.7318811 -0.026273513 -0.0 0.0 -0.0 -2.2216635 -0.733451 0.208321 -0.0 0.0 -0.0 -5.62398 -53.3305 -3.0172334 -1.5932809 66.155304 1.9675561 -1.4628516 3.2802055 -14.405301 0.0 0.0 0.0 -2.1501298 -14.125813 1.8204678 0.090095356 30.066998 -0.90618265 8.319347 -19.979101 18.894602
148.71759 80.3366 -49.581894 3.542985 -15.089981 3.173002 -7.4596825 0.6588669 -6.720746 -0.331037 -0.5880042 -1.9226456 -2.5939896 7.221204 -4.0724583 0.5959502 22.103199 -8.535811 -0.0 0.0 -0.0 -0.0 0.0 -0.0 0.0 0.0 0.0 3.5060163 -24.300295 -0.81568074 -27.97051 -30.360994 67.60441 -0.031550292 -6.077203 -0.85823035 -0.0 -0.0 -0.0 -0.0 -0.0 -0.0 -0.0 -0.0 -0.0 7.7309017 5.4749126 0.4173222 -0.0 -0.0 -0.0 2.9055667 0.96507555 0.1030082 -0.0 -0.0 -0.0 10.278597 0.7318811 0.026273513 -0.0 -0.0 -0.0 2.2216635 -0.733451 -0.208321 0.0 0.0 0.0 -83.07001 59.617607 5.6046324 27.7397 -29.236298 -66.02939 0.48323146 -19.366104 2.831505 -0.0 -0.0 -0.0 -0.0 -0.0 -0.0 -0.0 -0.0 -0.0 -7.7309017 5.4749126 -0.4173222 -0.0 -0.0 -0.0 -2.9055667 0.96507555 -0.1030082 -0.0 -0.0 -0.0 -10.278597 0.7318811 -0.026273513 -0.0 -0.0 -0.0 -2.2216635 -0.733451 0.208321 -0.0 0.0 -0.0 -6.027101 -54.045803 -4.3036823 -1.8042308 67.97798 2.1636088 -1.3832428 3.811658 -14.472204 0.0 0.0 0.0 -2.2313616 -14.083583 2.1899211 0.093168706 30.4508 -0.92336696 8.483865 -20.150795 19.109411
148.6373 80.23981 -49.353992 3.752019 -15.63899 2.9460392 -7.7938924 0.63261706 -6.9454827 -0.44607204 -0.7379652 -1.9894061 -2.6924675 7.12359 -3.9645712 0.39474759 21.746302 -8.274483 -0.0 0.0 -0.0 -0.0 0.0 -0.0 0.0 0.0 0.0 3.3987799 -24.806395 -0.29566473 -28.194206 -31.933388 70.34651 -0.112762116 -9.532938 -1.3522769 -0.0 -0.0 -0.0 -0.0 -0.0 -0.0 -0.0 -0.0 -0.0 7.7309017 5.4749126 0.4173222 -0.0 -0.0 -0.0 2.9055667 0.96507555 0.1030082 -0.0 -0.0 -0.0 10.278597 0.7318811 0.026273513 -0.0 -0.0 -0.0 2.2216635 -0.733451 -0.208321 0.0 0.0 0.0 -82.290794 60.39241 4.6837196 27.762297 -29.345108 -66.20471 0.51013553 -19.871485 2.9116101 -0.0 -0.0 -0.0 -0.0 -0.0 -0.0 -0.0 -0.0 -0.0 -7.7309017 5.4749126 -0.4173222 -0.0 -0.0 -0.0 -2.9055667 0.96507555 -0.1030082 -0.0 -0.0 -0.0 -10.278597 0.7318811 -0.026273513 -0.0 -0.0 -0.0 -2.2216635 -0.733451 0.208321 -0.0 0.0 -0.0 -6.7598295 -54.572292 -5.895238 -2.0363443 69.67781 2.3801033 -1.3192643 4.3226147 -14.772794 0.0 0.0 0.0 -2.4035742 -13.958481 2.3126593 0.09174955 30.601204 -0.9327487 8.657557 -20.217907 19.429497
148.5657 80.166504 -49.15259 4.0000024 -16.121002 2.941975 -8.061716 0.45035097 -7.1538024 -0.5927616 -0.8978237 -2.050714 -2.8001518 7.1172824 -3.9572408 0.2579123 21.28789 -8.222034 -0.0 0.0 -0.0 -0.0 0.0 -0.0 0.0 0.0 0.0 3.2475119 -25.391308 0.82584715 -28.365503 -33.471497 72.8654 -0.19966306 -12.635044 -1.803322 -0.0 -0.0 -0.0 -0.0 -0.0 -0.0 -0.0 -0.0 -0.0 7.7309017 5.4749126 0.4173222 -0.0 -0.0 -0.0 2.9055667 0.96507555 0.1030082 -0.0 -0.0 -0.0 10.278597 0.7318811 0.026273513 -0.0 -0.0 -0.0 2.2216635 -0.733451 -0.208321 0.0 0.0 0.0 -81.41451 61.19801 3.6012385 27.774195 -29.403097 -66.298294 0.5396149 -20.407887 2.9972084 -0.0 -0.0 -0.0 -0.0 -0.0 -0.0 -0.0 -0.0 -0.0 -7.7309017 5.4749126 -0.4173222 -0.0 -0.0 -0.0 -2.9055667 0.96507555 -0.1030082 -0.0 -0.0 -0.0 -10.278597 0.7318811 -0.026273513 -0.0 -0.0 -0.0 -2.2216635 -0.733451 0.208321 -0.0 0.0 -0.0 -7.9122143 -54.928303 -7.855015 -2.3036373 71.31478 2.6316876 -1.2887262 4.7646027 -15.464301 0.0 0.0 0.0 -2.7520206 -13.742389 2.0475583 0.08766948 30.450909 -0.9340749 8.860394 -20.158804 19.919998
148.4344 80.1145 -48.93849 4.1229806 -16.675995 3.0749362 -8.284147 0.1376144 -7.3342915 -0.79109424 -1.0644279 -2.1033673 -2.9089353 7.1705537 -4.027307 0.18196218 20.76 -8.33261 -0.0 0.0 -0.0 -0.0 0.0 -0.0 0.0 0.0 0.0 3.1158755 -26.029896 2.481488 -28.469397 -35.055107 75.3134 -0.30779827 -15.600275 -2.2466595 -0.0 -0.0 -0.0 -0.0 -0.0 -0.0 -0.0 -0.0 -0.0 7.7309017 5.4749126 0.4173222 -0.0 -0.0 -0.0 2.9055667 0.96507555 0.1030082 -0.0 -0.0 -0.0 10.278597 0.7318811 0.026273513 -0.0 -0.0 -0.0 2.2216635 -0.733451 -0.208321 0.0 0.0 0.0 -80.40121 62.062412 2.3772075 27.782303 -29.4428 -66.36191 0.5585495 -21.00046 3.0896573 -0.0 -0.0 -0.0 -0.0 -0.0 -0.0 -0.0 -0.0 -0.0 -7.7309017 5.4749126 -0.4173222 -0.0 -0.0 -0.0 -2.9055667 0.96507555 -0.1030082 -0.0 -0.0 -0.0 -10.278597 0.7318811 -0.026273513 -0.0 -0.0 -0.0 -2.2216635 -0.733451 0.208321 -0.0 0.0 -0.0 -9.389948 -55.132908 -10.055193 -2.6147912 72.91127 2.9267337 -1.262464 5.1884313 -16.401802 0.0 0.0 0.0 -3.2048132 -13.457602 1.560056 0.08037093 30.072603 -0.9279875 9.066646 -20.022095 20.491701
